PathFileType	4	(X/Y/Z)	E:\Qualisys_Data\Carbon_Farble_Plate\Data\Amateur_Runner\S14\T3\S14T3V21_c3d.trc
DataRate	CameraRate	NumFrames	NumMarkers	Units	OrigDataRate	OrigDataStartFrame	OrigNumFrames
200.000000	200.000000	4	39	mm	200.000000	0	326
Frame#	Time	LSHO			RSHO			LICST			RICST			LASIS			LHEEL			RASIS			LTROC			RTROC			SACR			LTH1			LSK4			LTH2			LTH3			RHM5			LSK2			LTH4			RTH1			LTOE			RTH2			RTH3			RTH4			LLEP			RLEP			LSK1			LSK3			RSK1			LHM5			RSK2			LFT1			RSK3			RSK4			LLME			RLME			RTOE			RHEEL			RFT1			RFT2			LFT2			
		X1	Y1	Z1	X2	Y2	Z2	X3	Y3	Z3	X4	Y4	Z4	X5	Y5	Z5	X6	Y6	Z6	X7	Y7	Z7	X8	Y8	Z8	X9	Y9	Z9	X10	Y10	Z10	X11	Y11	Z11	X12	Y12	Z12	X13	Y13	Z13	X14	Y14	Z14	X15	Y15	Z15	X16	Y16	Z16	X17	Y17	Z17	X18	Y18	Z18	X19	Y19	Z19	X20	Y20	Z20	X21	Y21	Z21	X22	Y22	Z22	X23	Y23	Z23	X24	Y24	Z24	X25	Y25	Z25	X26	Y26	Z26	X27	Y27	Z27	X28	Y28	Z28	X29	Y29	Z29	X30	Y30	Z30	X31	Y31	Z31	X32	Y32	Z32	X33	Y33	Z33	X34	Y34	Z34	X35	Y35	Z35	X36	Y36	Z36	X37	Y37	Z37	X38	Y38	Z38	X39	Y39	Z39	

1	0	-3581.645751953125	1479.087524414062	-495.4998474121094	-3640.246337890625	1481.709228515625	-207.5381774902344	-3675.396728515625	1028.956909179688	-480.4044799804688	-3661.03466796875	1042.449340820312	-207.8512573242188	-3646.567138671875	972.1694946289062	-458.9536743164062	-4281.25146484375	395.3327331542969	-381.9164123535156	-3637.798828125	1000.2763671875	-228.0827484130859	-3804.651123046875	944.4086303710938	-498.0825500488281	-3764.095458984375	929.6657104492188	-162.0199432373047	-3808.708984375	1048.43896484375	-350.1078186035156	-3847.011474609375	719.3486328125	-500.0215148925781	-4147.875	493.9901733398438	-452.2304077148438	-3909.378662109375	753.1006469726562	-464.9232177734375	-3881.697998046875	628.160400390625	-480.3456115722656	-3372.2568359375	148.7858581542969	-185.8498229980469	-4070.7763671875	556.2169189453125	-466.4664306640625	-3949.197998046875	663.1669921875	-453.0299072265625	-3558.3603515625	755.0518798828125	-181.2493133544922	-4266.5634765625	133.5729370117188	-408.6914672851562	-3630.336181640625	727.4524536132812	-170.505615234375	-3518.65380859375	666.697021484375	-205.8922271728516	-3593.08544921875	632.8245239257812	-187.5854797363281	-3965.64013671875	585.3292236328125	-470.4996337890625	-3545.24072265625	582.5745849609375	-187.6685791015625	-4018.18701171875	492.5452575683594	-474.0527648925781	-4098.5244140625	429.0745239257812	-464.8018493652344	-3512.233154296875	456.2933959960938	-187.8935241699219	-4299.5859375	202.4276885986328	-462.8854064941406	-3597.136474609375	441.8274841308594	-188.8421936035156	-4303.630859375	381.1789855957031	-351.3882446289062	-3501.80810546875	353.392333984375	-198.8013610839844	-3579.517578125	346.5873718261719	-200.065185546875	-4259.17578125	352.1157531738281	-442.5294189453125	-3515.3779296875	172.297119140625	-219.9917602539062	-3307.544677734375	192.9072418212891	-247.7774810791016	-3565.81103515625	124.8156204223633	-274.64501953125	-3535.483642578125	106.1377410888672	-305.9070739746094	-3554.09619140625	102.0039825439453	-254.7216949462891	-4314.69140625	389.8552551269531	-404.900634765625
2	0.005	-3559.427978515625	1479.023803710938	-494.1428527832031	-3620.570556640625	1481.047241210938	-206.4986419677734	-3654.7548828125	1029.415161132812	-480.6502990722656	-3639.64306640625	1042.474731445312	-207.2786254882812	-3624.800048828125	971.8839111328124	-459.20458984375	-4266.890625	405.4042663574219	-381.6039428710938	-3616.472900390625	999.7113037109376	-227.6142730712891	-3783.235107421875	944.7952270507812	-498.103271484375	-3744.375	928.5512084960938	-162.0776062011719	-3787.174072265625	1048.463623046875	-350.1016540527344	-3824.072265625	718.885009765625	-500.2074890136719	-4128.4853515625	501.0567626953125	-451.9064025878906	-3887.380615234375	752.7771606445312	-465.7467346191406	-3858.443359375	627.284423828125	-481.137939453125	-3337.9521484375	153.7653045654297	-185.2552947998047	-4048.884033203125	560.1416015625	-466.9503784179688	-3926.31494140625	662.4679565429688	-453.5783386230469	-3539.810791015625	752.64013671875	-181.0790710449219	-4252.73974609375	145.3604736328125	-410.7421569824219	-3609.225830078125	725.1287841796875	-169.2198486328125	-3499.858154296875	662.815185546875	-205.3311309814453	-3574.174072265625	631.5025024414062	-187.6778411865234	-3942.96484375	585.268310546875	-470.9693908691406	-3525.562255859375	579.6078491210938	-187.5629577636719	-3999.797119140625	495.3510437011719	-473.9607238769531	-4080.708984375	433.6896057128906	-464.7054138183594	-3492.053955078125	455.2449951171875	-185.5221862792969	-4284.13916015625	211.306396484375	-464.4726867675781	-3574.948486328125	438.0670166015625	-190.4137573242188	-4289.6962890625	390.655517578125	-350.7445678710938	-3477.509765625	352.5410461425781	-199.3487091064453	-3553.560791015625	344.4295654296875	-200.9520568847656	-4244.07861328125	361.9165649414062	-442.0434265136719	-3483.18212890625	171.7613372802734	-221.2034301757812	-3273.5439453125	201.5520629882812	-246.9193878173828	-3529.474853515625	122.4394149780273	-275.6593627929688	-3498.377685546875	105.3798370361328	-306.753662109375	-3516.7119140625	99.09030151367188	-255.1727600097656	-4299.8408203125	399.1728210449219	-403.9710388183594
3	0.01	-3538.612548828125	1478.974243164062	-492.8829040527344	-3599.82373046875	1480.344482421875	-205.792236328125	-3633.250244140625	1029.296630859375	-479.8289794921875	-3617.193115234375	1040.98046875	-207.510009765625	-3603.12060546875	973.0051879882812	-459.2352905273438	-4251.560546875	414.8345642089844	-380.5660705566406	-3596.183837890625	998.4490966796876	-227.8811340332031	-3761.897705078125	944.9828491210938	-498.4440002441406	-3724.04443359375	926.8857421875	-162.6944580078125	-3766.64306640625	1048.19580078125	-349.671142578125	-3800.448486328125	717.3206787109375	-501.166748046875	-4108.77734375	506.9949340820312	-452.1443786621094	-3864.207275390625	751.6945190429688	-466.3206176757812	-3836.072021484375	626.5120239257812	-481.2379760742188	-3305.1787109375	158.2171020507812	-185.3488311767578	-4027.76318359375	563.9213256835938	-467.1217651367188	-3904.044189453125	661.6220703125	-454.5229797363281	-3519.25244140625	749.8875122070312	-181.3237915039062	-4238.99462890625	155.7821655273438	-411.9590148925781	-3590.71044921875	722.5191040039062	-168.5989685058594	-3483.302978515625	659.4759521484375	-205.64892578125	-3556.48779296875	628.1163940429688	-187.2821807861328	-3922.23193359375	586.984619140625	-472.4847106933594	-3507.293701171875	577.1085815429688	-187.9502868652344	-3980.7890625	497.6292419433594	-475.4680786132812	-4064.038330078125	439.3621520996094	-464.3278198242188	-3469.079345703125	454.0580749511719	-185.8737030029297	-4269.47021484375	222.3047332763672	-465.75732421875	-3553.17529296875	434.7870483398438	-192.1369018554688	-4273.41748046875	399.3274230957031	-350.2050476074219	-3452.14013671875	352.9383850097656	-198.9468078613281	-3528.513916015625	341.1029052734375	-201.4560394287109	-4228.41455078125	371.7486572265625	-441.6405029296875	-3450.65673828125	170.765869140625	-221.4533081054688	-3243.07275390625	208.259765625	-245.74609375	-3494.195556640625	120.5103530883789	-276.0586547851562	-3462.650634765625	104.4910430908203	-307.8502197265625	-3481.353759765625	97.59922790527344	-256.8916320800781	-4284.8330078125	408.94287109375	-403.0527954101562
4	0.015	-3517.6787109375	1478.8017578125	-492.4396362304688	-3578.83642578125	1480.859130859375	-204.9205780029297	-3612.6748046875	1029.763671875	-479.9391784667969	-3596.42822265625	1039.433715820312	-207.3524475097656	-3581.280517578125	971.4367065429688	-458.7012329101562	-4236.04833984375	425.2882385253906	-380.3829040527344	-3575.737060546875	998.0198364257812	-227.9046325683594	-3739.725341796875	944.0765991210938	-498.6576538085938	-3703.990478515625	924.703857421875	-163.2884216308594	-3745.18701171875	1047.304321289062	-349.3609619140625	-3778.438232421875	716.1725463867188	-500.9756164550781	-4088.9833984375	513.3546142578125	-451.2995910644531	-3842.329833984375	750.6309204101562	-467.5971984863281	-3812.725341796875	625.2447509765625	-481.8168334960938	-3274.470458984375	162.4681701660156	-184.8119049072266	-4006.025146484375	567.51416015625	-467.4154663085938	-3881.37890625	660.5584106445312	-455.3370666503906	-3501.64892578125	746.1067504882812	-181.1154174804688	-4225.25830078125	165.0615997314453	-412.5631103515625	-3571.136474609375	720.132568359375	-167.8645629882812	-3464.831787109375	655.1334838867188	-205.7027282714844	-3538.711181640625	624.4486694335938	-186.3781433105469	-3899.2685546875	586.480224609375	-473.0045471191406	-3489.13134765625	573.85302734375	-187.7955322265625	-3960.495849609375	499.4515075683594	-475.7732238769531	-4046.732177734375	444.78515625	-464.5647888183594	-3448.572509765625	453.3882141113281	-186.5173950195312	-4254.55029296875	233.3022613525391	-466.5264587402344	-3530.90185546875	431.8657531738281	-193.6783142089844	-4257.240234375	408.6979675292969	-348.9249572753906	-3431.916748046875	351.8121948242188	-196.57275390625	-3504.0263671875	339.76123046875	-204.4193267822266	-4211.8486328125	381.4486694335938	-441.3807067871094	-3420.28369140625	171.1532745361328	-222.2770690917969	-3213.241455078125	215.2792358398438	-244.9579925537109	-3460.31298828125	119.2871551513672	-277.2957153320312	-3428.5810546875	104.0547332763672	-308.8133850097656	-3447.656494140625	96.86319732666016	-258.9545593261719	-4267.962890625	419.7748413085938	-402.6652526855469
